<svg width="64" height="64" viewBox="0 0 64 64" fill="none" xmlns="http://www.w3.org/2000/svg">
<g id="Group 5">
<circle id="Ellipse 2" cx="32" cy="32" r="31" fill="white" stroke="#CCE8FF" stroke-width="2"/>
<g id="Group 4">
<path id="Vector" fill-rule="evenodd" clip-rule="evenodd" d="M26.7449 22.4647C26.0613 21.8432 25.0166 21.8454 24.3356 22.4698L20.4505 26.032C19.8848 26.5506 19.8467 27.4296 20.3654 27.9953C20.884 28.561 21.7631 28.5991 22.3287 28.0804L25.5458 25.1307L28.7944 28.0844C29.3623 28.6007 30.2411 28.5589 30.7574 27.991C31.2737 27.4232 31.2319 26.5443 30.6641 26.028L26.7449 22.4647Z" fill="#0069C0"/>
<path id="Vector_2" fill-rule="evenodd" clip-rule="evenodd" d="M25.5595 22.0547C26.327 22.0547 26.9491 22.6768 26.9491 23.4443V40.6103C26.9491 41.3777 26.327 41.9999 25.5595 41.9999C24.7921 41.9999 24.1699 41.3777 24.1699 40.6103V23.4443C24.1699 22.6768 24.7921 22.0547 25.5595 22.0547Z" fill="#0069C0"/>
<path id="Vector_3" fill-rule="evenodd" clip-rule="evenodd" d="M39.3963 41.5352C38.7126 42.1568 37.668 42.1546 36.9869 41.5301L33.1019 37.9679C32.5362 37.4492 32.4981 36.5703 33.0167 36.0046C33.5354 35.4389 34.4144 35.4008 34.9801 35.9195L38.1972 38.8692L41.4458 35.9155C42.0137 35.3992 42.8925 35.441 43.4087 36.0089C43.925 36.5767 43.8833 37.4555 43.3154 37.9719L39.3963 41.5352Z" fill="#0069C0"/>
<path id="Vector_4" fill-rule="evenodd" clip-rule="evenodd" d="M38.2109 41.9451C38.9783 41.9451 39.6005 41.3229 39.6005 40.5555V23.3896C39.6005 22.6221 38.9783 22 38.2109 22C37.4434 22 36.8213 22.6221 36.8213 23.3896V40.5555C36.8213 41.3229 37.4434 41.9451 38.2109 41.9451Z" fill="#0069C0"/>
</g>
</g>
</svg>
